<svg width="280" height="36" viewBox="0 0 302 48" fill="none" xmlns="http://www.w3.org/2000/svg">
<g clip-path="url(#clip0_118_1010)">
<path fill-rule="evenodd" clip-rule="evenodd" d="M30.1543 14.1767C28.2138 12.8801 25.9325 12.1881 23.5989 12.1881V0.388672C28.2662 0.388672 32.8288 1.77272 36.7097 4.3658C40.5905 6.95886 43.6152 10.6445 45.4014 14.9566C47.1874 19.2687 47.6548 24.0137 46.7442 28.5914C45.8337 33.1691 43.5861 37.3741 40.2857 40.6744C36.9854 43.9748 32.7805 46.2224 28.2027 47.1329C23.625 48.0435 18.88 47.5761 14.5679 45.79C10.2558 44.0038 6.57019 40.9792 3.97713 37.0983C1.38405 33.2175 0 28.6549 0 23.9875H11.7994C11.7994 26.3212 12.4915 28.6025 13.788 30.5429C15.0845 32.4833 16.9273 33.9957 19.0834 34.8888C21.2394 35.7819 23.6119 36.0155 25.9008 35.5602C28.1897 35.1049 30.2921 33.9812 31.9423 32.331C33.5925 30.6807 34.7163 28.5783 35.1715 26.2895C35.6268 24.0006 35.3932 21.6281 34.5001 19.4721C33.607 17.316 32.0947 15.4732 30.1543 14.1767Z" fill="#2EC4B6"/>
<path fill-rule="evenodd" clip-rule="evenodd" d="M11.7994 0.388678C11.7994 1.9382 11.4942 3.47255 10.9012 4.90413C10.3083 6.33569 9.43913 7.63645 8.34345 8.73213C7.24778 9.82782 5.94702 10.6969 4.51544 11.2899C3.08387 11.8829 1.54952 12.1881 5.15765e-07 12.1881L0 23.9875C3.09904 23.9875 6.16774 23.3771 9.03089 22.1912C11.894 21.0052 14.4956 19.2669 16.6869 17.0755C18.8782 14.8843 20.6165 12.2827 21.8025 9.41957C22.9885 6.55641 23.5988 3.48771 23.5988 0.388672L11.7994 0.388678Z" fill="#2EC4B6"/>
<path d="M148.223 17.4419H142.498V35.6275H148.223V17.4419Z" fill="#2EC4B6"/>
<path d="M143.135 14.0365C143.734 14.6352 144.482 14.9346 145.38 14.9346C146.277 14.9346 147.014 14.6352 147.587 14.0365C148.162 13.4129 148.449 12.6645 148.449 11.7914C148.449 10.8934 148.162 10.1449 147.587 9.54626C147.014 8.94753 146.277 8.64819 145.38 8.64819C144.482 8.64819 143.734 8.94753 143.135 9.54626C142.561 10.1449 142.274 10.8934 142.274 11.7914C142.274 12.6645 142.561 13.4129 143.135 14.0365Z" fill="#2EC4B6"/>
<path d="M60.3613 35.6273V9.20947H66.2361V30.4636H77.9484V35.6273H60.3613Z" fill="#2EC4B6"/>
<path fill-rule="evenodd" clip-rule="evenodd" d="M88.5281 36.0389C86.6572 36.0389 84.9609 35.6273 83.4391 34.8041C81.9424 33.956 80.7575 32.8085 79.8843 31.3615C79.0113 29.9146 78.5747 28.2932 78.5747 26.4971C78.5747 24.701 79.0113 23.092 79.8843 21.67C80.7575 20.2481 81.9424 19.1255 83.4391 18.3024C84.9359 17.4541 86.6323 17.03 88.5281 17.03C90.424 17.03 92.1203 17.4417 93.6171 18.2648C95.1138 19.0881 96.2989 20.2232 97.1719 21.67C98.045 23.092 98.4816 24.701 98.4816 26.4971C98.4816 28.2932 98.045 29.9146 97.1719 31.3615C96.2989 32.8085 95.1138 33.956 93.6171 34.8041C92.1203 35.6273 90.424 36.0389 88.5281 36.0389ZM88.5281 30.8377C89.3513 30.8377 90.0748 30.6631 90.6985 30.3138C91.3221 29.9397 91.7961 29.4283 92.1203 28.7797C92.4696 28.1062 92.6442 27.3452 92.6442 26.4971C92.6442 25.6489 92.4696 24.913 92.1203 24.2894C91.7711 23.6408 91.2847 23.1419 90.661 22.7926C90.0623 22.4184 89.3513 22.2313 88.5281 22.2313C87.7299 22.2313 87.019 22.4184 86.3952 22.7926C85.7716 23.1419 85.2852 23.6408 84.9359 24.2894C84.5866 24.938 84.4121 25.6863 84.4121 26.5345C84.4121 27.3577 84.5866 28.1062 84.9359 28.7797C85.2852 29.4283 85.7716 29.9397 86.3952 30.3138C87.019 30.6631 87.7299 30.8377 88.5281 30.8377Z" fill="#2EC4B6"/>
<path fill-rule="evenodd" clip-rule="evenodd" d="M103.016 42.7372C104.538 43.4356 106.296 43.7848 108.292 43.7848C110.238 43.7848 111.972 43.3982 113.493 42.6248C115.015 41.8515 116.212 40.7789 117.085 39.4069C117.958 38.0348 118.396 36.4134 118.396 34.5423V17.4419H112.782V18.6637C112.365 18.3123 111.891 18.0174 111.36 17.7787C110.387 17.3047 109.277 17.0676 108.03 17.0676C106.359 17.0676 104.874 17.4668 103.577 18.265C102.28 19.0384 101.257 20.1111 100.509 21.4831C99.7603 22.8302 99.3862 24.3519 99.3862 26.0483C99.3862 27.7197 99.7603 29.2413 100.509 30.6134C101.257 31.9854 102.28 33.0706 103.577 33.8688C104.874 34.6671 106.359 35.0662 108.03 35.0662C109.252 35.0662 110.362 34.8293 111.36 34.3553C111.844 34.1257 112.28 33.8551 112.67 33.5435V34.6921C112.67 35.9643 112.258 36.9497 111.435 37.6482C110.637 38.3467 109.527 38.6959 108.105 38.6959C106.957 38.6959 105.972 38.4963 105.149 38.0972C104.35 37.6981 103.627 37.1118 102.978 36.3384L99.461 39.8559C100.334 41.1032 101.519 42.0636 103.016 42.7372ZM111.173 29.4534C110.599 29.8026 109.913 29.9773 109.115 29.9773C108.317 29.9773 107.618 29.8026 107.02 29.4534C106.446 29.1041 105.997 28.6301 105.673 28.0314C105.348 27.4078 105.186 26.7467 105.186 26.0483C105.186 25.2999 105.348 24.6263 105.673 24.0276C105.997 23.4289 106.458 22.955 107.057 22.6057C107.656 22.2564 108.342 22.0818 109.115 22.0818C109.913 22.0818 110.599 22.2564 111.173 22.6057C111.772 22.955 112.221 23.4289 112.52 24.0276C112.845 24.6263 113.007 25.2999 113.007 26.0483C113.007 26.7966 112.845 27.4701 112.52 28.0688C112.221 28.6426 111.772 29.1041 111.173 29.4534Z" fill="#2EC4B6"/>
<path fill-rule="evenodd" clip-rule="evenodd" d="M130.444 36.0389C128.572 36.0389 126.876 35.6273 125.355 34.8041C123.857 33.956 122.673 32.8085 121.799 31.3615C120.926 29.9146 120.49 28.2932 120.49 26.4971C120.49 24.701 120.926 23.092 121.799 21.67C122.673 20.2481 123.857 19.1255 125.355 18.3024C126.851 17.4541 128.548 17.03 130.444 17.03C132.339 17.03 134.035 17.4417 135.532 18.2648C137.029 19.0881 138.214 20.2232 139.087 21.67C139.96 23.092 140.397 24.701 140.397 26.4971C140.397 28.2932 139.96 29.9146 139.087 31.3615C138.214 32.8085 137.029 33.956 135.532 34.8041C134.035 35.6273 132.339 36.0389 130.444 36.0389ZM130.444 30.8377C131.266 30.8377 131.989 30.6631 132.614 30.3138C133.237 29.9397 133.711 29.4283 134.035 28.7797C134.385 28.1062 134.559 27.3452 134.559 26.4971C134.559 25.6489 134.385 24.913 134.035 24.2894C133.686 23.6408 133.2 23.1419 132.576 22.7926C131.978 22.4184 131.266 22.2313 130.444 22.2313C129.645 22.2313 128.933 22.4184 128.31 22.7926C127.686 23.1419 127.2 23.6408 126.851 24.2894C126.502 24.938 126.327 25.6863 126.327 26.5345C126.327 27.3577 126.502 28.1062 126.851 28.7797C127.2 29.4283 127.686 29.9397 128.31 30.3138C128.933 30.6631 129.645 30.8377 130.444 30.8377Z" fill="#2EC4B6"/>
<path fill-rule="evenodd" clip-rule="evenodd" d="M161.984 36.0017C160.763 36.0017 159.639 35.7648 158.616 35.2908C158.078 35.0413 157.592 34.7435 157.158 34.3973V43.2985H151.507V17.4419H157.232V18.697C157.648 18.3573 158.109 18.0636 158.616 17.8161C159.639 17.3171 160.763 17.0676 161.984 17.0676C163.705 17.0676 165.227 17.4793 166.549 18.3026C167.896 19.1257 168.944 20.2483 169.692 21.6702C170.466 23.0922 170.852 24.7137 170.852 26.5347C170.852 28.3558 170.466 29.9773 169.692 31.3992C168.944 32.8212 167.896 33.9436 166.549 34.7669C165.227 35.5901 163.705 36.0017 161.984 36.0017ZM160.937 30.8379C161.76 30.8379 162.471 30.6508 163.069 30.2766C163.694 29.9025 164.18 29.3909 164.529 28.7424C164.878 28.0938 165.053 27.3579 165.053 26.5347C165.053 25.6865 164.878 24.9382 164.529 24.2896C164.18 23.641 163.694 23.1421 163.069 22.7928C162.471 22.4185 161.773 22.2315 160.974 22.2315C160.176 22.2315 159.465 22.4185 158.842 22.7928C158.242 23.1421 157.769 23.641 157.42 24.2896C157.071 24.9382 156.896 25.6865 156.896 26.5347C156.896 27.3579 157.058 28.0938 157.382 28.7424C157.731 29.3909 158.217 29.9025 158.842 30.2766C159.465 30.6508 160.163 30.8379 160.937 30.8379Z" fill="#2EC4B6"/>
<path d="M176.456 35.6649C177.503 35.9393 178.563 36.0765 179.636 36.0765C181.906 36.0765 183.702 35.5527 185.024 34.5049C186.371 33.4572 187.045 32.0478 187.045 30.2766C187.045 29.1291 186.833 28.206 186.409 27.5076C185.985 26.7842 185.436 26.2104 184.762 25.7863C184.089 25.3622 183.377 25.0254 182.629 24.7759C181.881 24.5265 181.17 24.3144 180.497 24.1398C179.823 23.9652 179.275 23.7656 178.85 23.5411C178.426 23.3166 178.214 23.0172 178.214 22.6431C178.214 22.2938 178.377 22.0318 178.7 21.8572C179.024 21.6577 179.511 21.558 180.16 21.558C180.833 21.558 181.519 21.6951 182.217 21.9695C182.941 22.2439 183.59 22.718 184.163 23.3915L187.419 20.0986C186.596 19.0508 185.524 18.265 184.201 17.7412C182.904 17.1924 181.482 16.918 179.935 16.918C178.464 16.918 177.179 17.1674 176.082 17.6663C174.983 18.1653 174.135 18.8513 173.537 19.7243C172.938 20.5725 172.639 21.5829 172.639 22.7554C172.639 23.853 172.851 24.7635 173.275 25.4869C173.698 26.1854 174.248 26.7343 174.921 27.1333C175.594 27.5325 176.306 27.8444 177.054 28.0688C177.802 28.2933 178.514 28.5054 179.187 28.705C179.86 28.8796 180.41 29.0917 180.833 29.3411C181.283 29.5657 181.507 29.9024 181.507 30.3514C181.507 30.7006 181.319 30.975 180.945 31.1746C180.596 31.3742 180.085 31.474 179.411 31.474C178.438 31.474 177.54 31.2993 176.718 30.9501C175.894 30.5759 175.183 30.0645 174.584 29.4159L171.329 32.7088C171.953 33.3823 172.701 33.9811 173.574 34.5049C174.472 35.0038 175.433 35.3904 176.456 35.6649Z" fill="#2EC4B6"/>
<path d="M197.485 36.0391C195.814 36.0391 194.329 35.7023 193.033 35.0288C191.76 34.3303 190.762 33.3823 190.039 32.1849C189.315 30.9626 188.954 29.5657 188.954 27.994V17.4419H194.679V27.9192C194.679 28.5428 194.778 29.0792 194.978 29.5282C195.203 29.9773 195.527 30.3265 195.951 30.576C196.375 30.8254 196.886 30.9501 197.485 30.9501C198.333 30.9501 199.007 30.6882 199.506 30.1643C200.005 29.6155 200.254 28.8672 200.254 27.9192V17.4419H205.979V27.9566C205.979 29.5532 205.618 30.9626 204.893 32.1849C204.17 33.3823 203.173 34.3303 201.9 35.0288C200.628 35.7023 199.157 36.0391 197.485 36.0391Z" fill="#2EC4B6"/>
<path d="M214.55 17.4419H208.825V35.6275H214.55V25.0005C214.55 24.3769 214.675 23.853 214.924 23.4289C215.199 23.0049 215.561 22.6805 216.01 22.4561C216.459 22.2065 216.97 22.0818 217.544 22.0818C218.367 22.0818 219.053 22.3437 219.602 22.8676C220.176 23.3665 220.463 24.0775 220.463 25.0005V35.6275H226.188V25.0005C226.188 24.3769 226.313 23.853 226.562 23.4289C226.837 23.0049 227.198 22.6805 227.648 22.4561C228.096 22.2065 228.608 22.0818 229.182 22.0818C230.005 22.0818 230.691 22.3437 231.239 22.8676C231.813 23.3665 232.1 24.0775 232.1 25.0005V35.6275H237.826V24.3644C237.826 22.8427 237.501 21.5455 236.852 20.4728C236.228 19.3751 235.368 18.5395 234.271 17.9658C233.198 17.367 231.963 17.0676 230.566 17.0676C229.144 17.0676 227.859 17.3795 226.712 18.0032C225.966 18.4005 225.315 18.9133 224.757 19.5415C224.236 18.8844 223.604 18.3467 222.857 17.9283C221.86 17.3546 220.725 17.0676 219.453 17.0676C218.105 17.0676 216.896 17.3546 215.823 17.9283C215.356 18.167 214.933 18.4529 214.55 18.786V17.4419Z" fill="#2EC4B6"/>
</g>
<defs>
<clipPath id="clip0_118_1010">
<rect width="302" height="47" fill="white" transform="translate(0 0.388672)"/>
</clipPath>
</defs>
</svg>
